<svg width="355" height="173" viewBox="0 0 355 173" fill="none" xmlns="http://www.w3.org/2000/svg">
<path d="M97.2606 159.602C97.8399 155.836 132.014 26.6486 132.014 26.6486H55.5571C52.7768 26.6486 47.448 28.9658 46 31.5728C47.1584 9.327 66.9483 1.25519 76.6985 0H216C216 0 211.153 20.5657 209.918 23.4623C203.199 39.2197 187.618 44.3177 180.668 44.897H154.024C144.177 81.7802 126.131 157.386 123.615 161.34C117.533 170.898 105.62 174.177 103.053 172.636C97.2606 169.16 96.6814 163.367 97.2606 159.602Z" fill="#3C6E71"/>
<path d="M90.56 51.6078C94.7994 35.4428 114.168 32.4889 123 33.0662L90.56 154.948C86.2522 166.649 92.4346 170.691 95.0842 173C71.8265 168.959 66.9098 147.058 68.1855 137.051C73.8773 115.305 86.3207 67.7727 90.56 51.6078Z" fill="#E27D4F"/>
<path d="M58.8176 33C52.5875 33 49.5941 34.7091 47 37.8525C49.3059 57.7421 66.3118 67.8569 74.6706 69L79.8588 49.5677C83.8941 37.2796 91.3882 34.7077 96 33C88.2176 33.0953 65.0478 33 58.8176 33Z" fill="#E6CB5C"/>
<rect x="21" y="5" width="13" height="12" rx="3" fill="#3C6E71"/>
<rect y="11" width="13" height="12" rx="3" fill="#E6CB5C"/>
<rect x="13" y="26" width="12" height="12" rx="3" fill="#E27D4F"/>
<path d="M161.85 98V68.685H171.42L171.97 78.31L169.825 76.66C170.302 75.0467 171.035 73.5983 172.025 72.315C173.052 70.995 174.28 69.9683 175.71 69.235C177.14 68.465 178.643 68.08 180.22 68.08C180.88 68.08 181.503 68.135 182.09 68.245C182.677 68.3183 183.227 68.4283 183.74 68.575L180.935 79.905C180.532 79.6483 179.963 79.4283 179.23 79.245C178.497 79.025 177.708 78.915 176.865 78.915C176.132 78.915 175.472 79.0433 174.885 79.3C174.298 79.52 173.803 79.85 173.4 80.29C172.997 80.73 172.685 81.2617 172.465 81.885C172.245 82.4717 172.135 83.1683 172.135 83.975V98H161.85ZM202.994 98.495C200.574 98.495 198.393 97.8533 196.449 96.57C194.543 95.25 193.021 93.4533 191.884 91.18C190.784 88.87 190.234 86.2483 190.234 83.315C190.234 80.3083 190.784 77.6683 191.884 75.395C192.984 73.1217 194.506 71.3433 196.449 70.06C198.393 68.74 200.629 68.08 203.159 68.08C204.516 68.08 205.763 68.2633 206.899 68.63C208.036 68.9967 209.026 69.5283 209.869 70.225C210.713 70.9217 211.446 71.71 212.069 72.59C212.693 73.47 213.206 74.4233 213.609 75.45L211.519 75.34V68.685H221.584V98H211.299V90.85L213.554 90.96C213.224 92.0233 212.729 93.0133 212.069 93.93C211.446 94.8467 210.676 95.6533 209.759 96.35C208.843 97.01 207.816 97.5417 206.679 97.945C205.579 98.3117 204.351 98.495 202.994 98.495ZM205.909 90.08C207.083 90.08 208.091 89.8233 208.934 89.31C209.778 88.76 210.419 87.9717 210.859 86.945C211.336 85.9183 211.574 84.7083 211.574 83.315C211.574 81.885 211.336 80.6567 210.859 79.63C210.419 78.6033 209.778 77.8333 208.934 77.32C208.091 76.77 207.083 76.495 205.909 76.495C204.736 76.495 203.728 76.77 202.884 77.32C202.078 77.8333 201.454 78.6033 201.014 79.63C200.574 80.6567 200.354 81.885 200.354 83.315C200.354 84.7083 200.574 85.9183 201.014 86.945C201.454 87.9717 202.078 88.76 202.884 89.31C203.728 89.8233 204.736 90.08 205.909 90.08ZM247.869 98.55C244.972 98.55 242.369 97.89 240.059 96.57C237.785 95.25 235.989 93.4533 234.669 91.18C233.349 88.87 232.689 86.2483 232.689 83.315C232.689 80.3817 233.349 77.7783 234.669 75.505C235.989 73.195 237.785 71.38 240.059 70.06C242.369 68.74 244.972 68.08 247.869 68.08C250.509 68.08 252.929 68.5017 255.129 69.345C257.365 70.1883 259.144 71.3983 260.464 72.975L254.909 79.575C254.505 79.0617 253.992 78.6033 253.369 78.2C252.745 77.76 252.049 77.43 251.279 77.21C250.545 76.9533 249.72 76.825 248.804 76.825C247.594 76.825 246.53 77.1 245.614 77.65C244.697 78.2 243.982 78.97 243.469 79.96C242.992 80.9133 242.754 82.0133 242.754 83.26C242.754 84.5067 242.992 85.6067 243.469 86.56C243.945 87.5133 244.642 88.2833 245.559 88.87C246.512 89.4567 247.594 89.75 248.804 89.75C249.72 89.75 250.545 89.64 251.279 89.42C252.049 89.2 252.727 88.8883 253.314 88.485C253.937 88.0817 254.469 87.605 254.909 87.055L260.464 93.71C259.107 95.25 257.31 96.4417 255.074 97.285C252.874 98.1283 250.472 98.55 247.869 98.55ZM280.528 89.64L275.908 82.82L289.493 68.685H302.858L280.528 89.64ZM270.518 98V57.3H280.803V98H270.518ZM290.483 98L280.473 84.36L287.678 79.08L302.308 98H290.483ZM312.227 98V68.685H322.457V98H312.227ZM317.342 63.13C315.472 63.13 314.024 62.7083 312.997 61.865C311.97 60.985 311.457 59.7567 311.457 58.18C311.457 56.7133 311.97 55.5217 312.997 54.605C314.06 53.6517 315.509 53.175 317.342 53.175C319.175 53.175 320.605 53.615 321.632 54.495C322.695 55.3383 323.227 56.5667 323.227 58.18C323.227 59.6467 322.695 60.8383 321.632 61.755C320.569 62.6717 319.139 63.13 317.342 63.13ZM337.906 98V61.26H348.136V98H337.906ZM333.066 77.375V68.685H353.251V77.375H333.066Z" fill="#3C6E71"/>
</svg>
