<svg width="372" height="299" viewBox="0 0 372 299" fill="none" xmlns="http://www.w3.org/2000/svg">
<path d="M166.5 275.5C167.5 269 226.5 46 226.5 46H94.5C89.7 46 80.5 50 78 54.5C80 16.1 114.167 2.16667 131 0H371.5C371.5 0 363.132 35.5 361 40.5C349.4 67.7 322.5 76.5 310.5 77.5H264.5C247.5 141.167 216.343 271.675 212 278.5C201.5 295 180.932 300.659 176.5 298C166.5 292 165.5 282 166.5 275.5Z" fill="#3C6E71"/>
<path d="M155.315 88.2313C162.515 60.2313 195.41 55.1147 210.41 56.1147L155.315 267.231C147.999 287.5 158.499 294.5 162.999 298.5C123.499 291.5 115.148 253.565 117.315 236.231C126.982 198.565 148.115 116.231 155.315 88.2313Z" fill="#E27D4F"/>
<path d="M100.5 56C89.6926 56 84.5 58.9903 80 64.4903C84 99.2903 113.5 116.988 128 118.988L137 84.9878C144 63.4878 157 58.9878 165 56C151.5 56.1667 111.307 56 100.5 56Z" fill="#E6CB5C"/>
<rect x="36" y="10" width="21" height="20" rx="3" fill="#3C6E71"/>
<rect y="19" width="21" height="20" rx="3" fill="#E6CB5C"/>
<rect x="21" y="46" width="21" height="20" rx="3" fill="#E27D4F"/>
</svg>
